<?xml version="1.0" encoding="UTF-8" ?>
<!DOCTYPE svg PUBLIC "-//W3C//DTD SVG 1.1//EN" "http://www.w3.org/Graphics/SVG/1.1/DTD/svg11.dtd">
<svg width="354pt" height="307pt" viewBox="0 0 354 307" version="1.1" xmlns="http://www.w3.org/2000/svg">
<g id="#f7f7f7ff">
</g>
<g id="#33363aff">
<path fill="#33363a" opacity="1.00" d=" M 267.00 33.45 C 267.94 29.35 271.46 25.48 275.99 26.07 C 281.10 26.52 283.61 31.61 286.05 35.44 C 289.65 30.85 297.76 31.46 299.96 37.09 C 302.10 43.69 301.24 50.93 298.99 57.39 C 301.70 58.22 304.83 59.01 306.34 61.68 C 308.90 65.51 307.32 71.33 303.07 73.20 C 299.87 74.93 296.34 73.21 293.02 72.88 C 286.59 72.12 280.25 75.68 276.71 80.94 C 283.16 84.80 288.86 90.56 290.88 97.97 C 291.98 101.25 291.24 104.93 292.81 108.07 C 297.20 116.91 300.62 126.28 302.65 135.95 C 303.15 137.39 301.86 138.52 301.25 139.67 C 308.34 159.39 309.52 181.20 304.33 201.52 C 297.73 228.07 280.30 251.69 257.03 266.04 C 237.83 278.24 214.51 283.61 191.89 281.56 C 169.62 279.68 148.16 270.28 131.47 255.47 C 116.31 242.11 104.93 224.38 99.43 204.91 C 94.15 186.43 94.03 166.51 99.09 147.97 C 99.76 145.71 99.39 143.36 99.32 141.06 C 98.42 124.16 105.21 107.10 117.28 95.27 C 128.80 83.68 145.08 77.43 161.36 77.53 C 159.16 67.30 156.80 57.10 154.68 46.85 C 154.00 44.79 155.91 43.10 157.80 42.91 C 184.16 37.17 212.37 40.61 236.58 52.49 C 242.51 55.25 247.97 58.84 253.55 62.23 C 253.53 61.53 253.50 60.13 253.48 59.43 C 250.41 57.68 246.29 56.89 244.61 53.42 C 242.32 49.29 244.58 43.51 249.12 42.13 C 252.09 40.95 255.11 42.41 257.89 43.41 C 260.35 39.62 263.21 36.01 267.00 33.45 M 275.73 38.36 C 280.08 44.00 280.04 51.43 279.13 58.15 C 280.96 55.70 283.91 53.39 283.56 49.99 C 283.38 43.43 280.70 36.90 276.04 32.26 C 271.70 32.18 274.00 36.59 275.73 38.36 M 290.52 38.66 C 291.07 44.74 291.46 51.42 287.74 56.66 C 289.36 56.64 290.98 56.64 292.61 56.64 C 294.75 51.29 295.94 45.25 294.33 39.59 C 293.96 37.58 291.86 38.27 290.52 38.66 M 263.16 46.53 C 264.22 47.38 265.28 48.23 266.34 49.08 C 267.89 46.84 269.62 44.73 271.48 42.74 C 270.71 41.64 269.95 40.53 269.18 39.43 C 266.98 41.63 264.97 44.00 263.16 46.53 M 161.03 48.70 C 161.72 51.94 162.44 55.19 163.17 58.43 C 163.55 60.19 163.91 61.95 164.29 63.71 C 190.39 58.74 218.23 64.70 240.12 79.70 C 241.91 78.80 243.70 77.90 245.49 77.00 C 249.34 75.87 253.32 75.33 257.33 75.27 C 256.66 74.08 256.08 72.83 255.24 71.74 C 229.22 50.76 193.82 42.16 161.03 48.70 M 250.58 51.29 C 254.53 53.09 258.21 55.36 261.40 58.32 C 263.10 61.67 264.89 64.98 266.22 68.50 C 266.96 67.55 267.71 66.61 268.46 65.66 L 269.02 66.35 C 267.81 57.07 259.43 50.06 250.82 47.46 C 250.35 48.63 248.64 50.51 250.58 51.29 M 272.39 53.16 C 271.04 53.46 270.61 56.09 272.19 56.34 C 273.51 56.05 273.90 53.40 272.39 53.16 M 273.18 69.84 C 269.13 72.86 266.96 77.77 265.13 82.35 C 266.22 83.05 267.90 84.56 269.07 83.12 C 270.94 80.02 272.18 76.45 274.88 73.91 C 279.82 68.61 287.25 66.46 294.34 66.79 C 296.49 67.17 298.65 68.20 300.87 67.79 C 302.23 66.69 301.65 64.43 299.91 64.14 C 290.85 61.01 280.16 63.25 273.18 69.84 M 165.66 69.79 C 165.93 70.97 166.19 72.16 166.46 73.35 C 166.83 74.94 167.21 76.54 167.59 78.13 C 187.99 80.52 206.32 94.17 215.09 112.65 C 217.90 118.88 219.74 125.50 220.55 132.29 C 223.93 117.50 226.73 102.47 232.02 88.21 C 233.60 86.73 234.64 84.80 235.58 82.88 L 234.35 83.24 C 214.45 69.96 189.10 65.09 165.66 69.79 M 245.43 83.41 C 240.93 86.00 237.56 90.15 235.85 95.05 C 233.28 103.99 231.06 113.03 228.97 122.10 C 228.65 123.31 228.33 124.52 228.02 125.73 C 229.57 125.92 231.25 125.68 232.69 126.39 C 234.64 127.74 234.34 131.23 231.99 131.97 C 230.16 132.26 228.57 131.24 227.06 130.38 C 226.40 133.92 225.57 137.41 224.92 140.95 C 225.42 142.27 226.98 143.46 226.43 145.00 C 226.34 146.56 224.45 146.86 223.47 147.73 C 222.97 150.06 222.52 152.41 222.06 154.75 C 231.66 157.25 240.96 161.14 249.08 166.88 C 251.65 168.81 254.75 169.76 257.79 170.66 C 259.40 167.31 261.07 163.99 262.73 160.66 C 258.95 159.25 254.96 158.39 251.33 156.61 C 249.04 155.20 250.46 151.10 253.12 151.39 C 257.28 152.22 261.20 153.97 265.25 155.24 C 266.91 151.98 268.47 148.66 270.00 145.33 C 266.23 143.95 262.25 143.10 258.65 141.30 C 256.63 139.81 257.77 136.45 260.11 136.06 C 264.42 136.81 268.42 138.70 272.62 139.90 C 273.01 139.01 273.41 138.13 273.81 137.24 C 274.89 134.81 275.96 132.39 277.03 129.95 C 273.13 128.51 269.04 127.57 265.27 125.83 C 262.50 124.68 264.10 119.85 266.97 120.50 C 271.24 121.48 275.29 123.20 279.47 124.47 C 280.93 121.17 282.26 117.81 283.50 114.41 C 279.33 112.96 275.04 111.84 270.97 110.13 C 269.43 109.62 269.48 107.75 268.98 106.49 C 270.17 105.70 271.38 103.99 273.04 104.76 C 277.27 105.90 281.36 107.55 285.56 108.80 C 286.22 104.57 285.69 100.29 284.10 96.33 L 283.89 96.26 C 281.61 92.27 278.18 89.14 274.39 86.62 C 272.58 88.18 270.51 89.36 268.27 90.16 C 265.89 89.67 263.62 88.85 261.49 87.68 C 260.40 85.72 259.57 83.64 259.09 81.46 C 254.45 81.13 249.77 81.68 245.43 83.41 M 120.90 99.95 C 110.86 110.05 105.24 124.17 105.16 138.37 C 105.12 158.25 116.76 177.31 134.23 186.67 C 136.80 183.14 139.48 179.69 142.32 176.37 C 127.95 169.59 118.25 154.58 117.91 138.69 C 118.16 128.21 121.84 117.71 129.09 110.01 C 136.87 101.30 148.39 96.43 160.01 96.21 C 170.44 96.46 180.83 100.30 188.44 107.52 C 197.06 115.30 201.82 126.75 202.07 138.29 C 201.77 143.01 200.90 147.67 199.69 152.24 C 204.08 152.42 208.47 152.64 212.85 152.95 C 214.45 146.09 215.47 138.95 214.42 131.93 C 213.05 118.98 206.75 106.63 197.03 97.95 C 187.04 88.74 173.61 83.51 160.02 83.42 C 145.47 83.49 131.03 89.46 120.90 99.95 M 124.31 134.44 L 124.19 134.54 C 124.16 135.88 124.13 137.23 124.10 138.58 C 124.13 139.83 124.15 141.08 124.17 142.33 L 124.30 142.43 C 125.61 155.52 134.74 167.19 146.93 172.01 C 148.36 170.85 149.80 169.70 151.23 168.54 C 154.05 166.51 156.98 164.63 159.96 162.84 C 167.33 158.72 175.38 156.11 183.50 153.98 C 186.69 153.61 189.86 153.13 193.05 152.71 C 194.39 149.32 195.29 145.78 195.73 142.16 C 195.80 140.97 195.87 139.77 195.95 138.58 C 195.85 137.32 195.77 136.05 195.68 134.79 C 194.19 118.23 179.96 104.06 163.38 102.68 C 162.25 102.62 161.13 102.57 160.00 102.52 C 158.84 102.56 157.68 102.61 156.53 102.65 C 140.08 104.07 125.85 117.96 124.31 134.44 M 283.79 129.34 C 282.46 132.20 280.86 135.02 280.62 138.23 C 282.50 137.85 284.39 137.44 286.27 137.03 C 289.55 136.29 292.84 135.57 296.12 134.84 C 294.44 128.26 292.26 121.81 289.53 115.59 C 287.66 120.19 285.81 124.81 283.79 129.34 M 276.83 144.90 C 274.60 149.24 272.61 153.70 270.52 158.11 C 273.49 169.04 273.16 180.52 271.32 191.59 C 276.33 202.55 278.91 214.94 276.49 226.91 C 275.07 235.36 269.72 242.99 262.34 247.32 C 252.94 252.91 241.85 254.59 231.12 255.52 C 215.68 256.66 200.21 256.11 184.75 256.18 C 170.90 255.62 156.49 255.14 143.70 249.16 C 135.82 245.53 129.34 238.62 127.00 230.18 C 123.56 217.52 125.67 203.82 131.31 192.11 C 118.24 184.94 107.82 173.06 102.76 159.00 C 101.55 167.22 101.02 175.57 101.71 183.87 C 103.66 209.14 115.71 233.46 134.62 250.34 C 152.66 266.79 176.92 276.18 201.34 276.19 C 220.09 276.16 238.80 270.73 254.64 260.69 C 275.97 247.32 291.97 225.64 298.22 201.23 C 303.61 181.46 302.31 160.00 294.99 140.89 C 288.90 142.10 282.91 143.74 276.83 144.90 M 163.02 168.01 C 149.39 175.46 138.15 187.78 133.49 202.75 C 131.72 208.90 131.08 215.32 131.44 221.71 C 132.07 225.90 132.99 230.16 135.23 233.82 C 138.64 239.68 144.74 243.39 151.03 245.52 C 162.61 249.41 174.97 249.63 187.06 250.12 C 202.72 250.34 218.42 250.47 234.04 249.09 C 243.99 247.92 254.60 246.17 262.57 239.61 C 267.96 235.27 270.49 228.46 271.28 221.76 C 271.64 215.38 270.99 208.98 269.26 202.83 C 266.14 193.03 260.34 184.17 252.70 177.30 C 228.78 155.66 190.99 152.58 163.02 168.01 M 261.96 176.00 C 261.67 176.23 261.10 176.70 260.81 176.93 C 262.78 179.16 264.67 181.45 266.45 183.83 C 266.51 182.30 266.61 180.77 266.59 179.24 C 266.99 175.40 266.66 171.54 266.24 167.72 C 264.33 170.20 263.01 173.07 261.96 176.00 Z" />
<path fill="#33363a" opacity="1.00" d=" M 71.36 69.15 C 71.37 67.05 74.13 65.58 75.83 66.88 C 77.34 67.64 77.26 69.55 77.31 70.99 C 77.32 77.79 77.28 84.60 77.30 91.40 C 79.93 91.44 82.56 91.62 85.14 92.19 C 85.21 84.86 84.94 77.51 85.24 70.19 C 85.41 66.93 90.68 66.80 91.00 70.03 C 91.47 79.32 90.80 88.65 91.30 97.93 C 92.67 103.85 92.02 109.95 92.18 115.97 C 92.30 119.57 91.73 123.46 89.09 126.13 C 86.66 128.96 82.86 129.80 79.30 129.99 C 79.31 137.71 79.27 145.43 79.33 153.15 C 82.14 154.68 84.92 156.60 86.40 159.55 C 88.44 163.01 88.14 167.15 88.16 171.01 C 88.12 201.69 88.16 232.37 88.14 263.04 C 88.34 267.99 85.91 272.99 81.65 275.60 C 76.56 278.95 69.31 278.27 64.92 274.07 C 61.81 271.31 60.34 267.12 60.43 263.02 C 60.44 230.71 60.37 198.40 60.46 166.09 C 60.38 160.39 64.24 155.46 69.26 153.12 C 69.27 145.41 69.26 137.70 69.26 129.99 C 65.30 129.87 61.10 128.62 58.72 125.23 C 55.05 120.28 56.83 113.75 56.39 108.05 C 55.89 102.95 57.74 98.04 57.45 92.96 C 57.47 85.43 57.28 77.89 57.51 70.37 C 57.51 68.31 60.20 66.78 61.91 68.05 C 63.75 68.99 63.36 71.32 63.46 73.03 C 63.42 79.41 63.46 85.78 63.41 92.16 C 66.00 91.67 68.63 91.44 71.27 91.40 C 71.34 83.98 71.11 76.56 71.36 69.15 M 66.46 166.93 C 66.44 198.97 66.45 231.02 66.45 263.07 C 66.12 266.74 68.73 270.85 72.28 271.48 C 77.30 273.23 82.70 268.15 82.10 263.04 C 82.07 230.67 82.19 198.30 82.04 165.94 C 82.17 161.56 78.20 158.70 74.26 158.04 C 69.87 158.63 66.00 162.28 66.46 166.93 Z" />
<path fill="#33363a" opacity="1.00" d=" M 238.06 95.87 C 239.75 94.90 241.63 93.32 243.69 94.37 C 245.60 95.09 245.34 97.50 245.90 99.09 C 243.99 99.97 241.48 100.92 239.70 99.23 C 239.09 98.14 238.54 97.02 238.06 95.87 Z" />
<path fill="#33363a" opacity="1.00" d=" M 246.72 98.70 C 248.31 98.06 249.89 96.64 251.71 97.20 C 253.71 97.51 253.89 99.87 254.81 101.28 C 253.36 102.13 251.96 103.82 250.09 103.12 C 247.82 102.90 247.50 100.34 246.72 98.70 Z" />
<path fill="#33363a" opacity="1.00" d=" M 256.64 102.27 C 258.26 100.99 260.18 99.23 262.36 100.48 C 264.75 100.88 265.25 103.31 265.98 105.23 C 262.78 108.31 257.81 106.23 256.64 102.27 Z" />
<path fill="#33363a" opacity="1.00" d=" M 235.12 110.24 C 237.15 109.64 240.02 110.60 240.18 113.02 C 240.62 115.36 238.11 117.05 236.03 116.15 C 232.96 115.96 232.11 111.20 235.12 110.24 Z" />
<path fill="#33363a" opacity="1.00" d=" M 243.25 113.30 C 245.57 111.95 249.47 113.71 248.77 116.71 C 248.33 119.79 244.01 119.73 242.40 117.69 C 241.41 116.33 241.69 114.10 243.25 113.30 Z" />
<path fill="#33363a" opacity="1.00" d=" M 253.38 116.50 C 256.08 115.33 260.89 117.42 259.95 120.91 C 258.08 126.11 248.11 120.10 253.38 116.50 Z" />
<path fill="#33363a" opacity="1.00" d=" M 237.24 129.06 C 239.71 127.81 243.44 129.94 242.49 132.93 C 241.51 135.90 237.09 135.42 235.85 132.96 C 235.17 131.50 235.83 129.78 237.24 129.06 Z" />
<path fill="#33363a" opacity="1.00" d=" M 247.23 132.09 C 250.18 130.85 255.42 133.72 253.40 137.28 C 250.65 141.31 242.17 135.39 247.23 132.09 Z" />
<path fill="#33363a" opacity="1.00" d=" M 230.08 144.19 C 232.46 143.30 235.84 145.16 235.09 147.97 C 234.39 151.23 229.27 150.80 228.37 147.92 C 227.70 146.47 228.70 144.76 230.08 144.19 Z" />
<path fill="#33363a" opacity="1.00" d=" M 239.38 147.50 C 242.10 146.14 247.39 148.27 246.26 151.93 C 244.33 156.85 234.45 151.29 239.38 147.50 Z" />
<path fill="#33363a" opacity="1.00" d=" M 175.03 183.06 C 189.94 170.54 213.81 170.79 228.47 183.57 C 235.93 189.85 240.45 199.57 239.87 209.37 C 239.48 214.18 237.54 218.67 234.89 222.65 C 226.54 232.24 213.21 235.12 201.02 235.00 C 189.06 235.03 176.06 232.12 167.87 222.75 C 165.25 218.72 163.37 214.17 163.03 209.34 C 162.47 199.27 167.26 189.36 175.03 183.06 M 172.65 194.78 C 167.86 202.55 167.37 213.94 174.34 220.61 C 181.69 227.40 192.33 228.81 201.95 228.98 C 211.46 228.63 222.04 227.10 229.08 220.07 C 234.36 214.75 234.73 206.51 232.59 199.69 C 227.86 187.02 214.25 179.61 201.12 179.76 C 199.06 179.36 196.96 178.84 194.86 179.32 C 185.75 181.02 177.11 186.49 172.65 194.78 Z" />
<path fill="#33363a" opacity="1.00" d=" M 74.24 262.01 C 70.18 260.04 70.17 253.95 74.26 252.01 C 78.33 254.03 78.42 260.05 74.24 262.01 Z" />
</g>
<g id="#92fc6bff">
<path fill="#92fc6b" opacity="1.00" d=" M 275.73 38.36 C 274.00 36.59 271.70 32.18 276.04 32.26 C 280.70 36.90 283.38 43.43 283.56 49.99 C 283.91 53.39 280.96 55.70 279.13 58.15 C 280.04 51.43 280.08 44.00 275.73 38.36 Z" />
<path fill="#92fc6b" opacity="1.00" d=" M 290.52 38.66 C 291.86 38.27 293.96 37.58 294.33 39.59 C 295.94 45.25 294.75 51.29 292.61 56.64 C 290.98 56.64 289.36 56.64 287.74 56.66 C 291.46 51.42 291.07 44.74 290.52 38.66 Z" />
<path fill="#92fc6b" opacity="1.00" d=" M 263.16 46.53 C 264.97 44.00 266.98 41.63 269.18 39.43 C 269.95 40.53 270.71 41.64 271.48 42.74 C 269.62 44.73 267.89 46.84 266.34 49.08 C 265.28 48.23 264.22 47.38 263.16 46.53 Z" />
<path fill="#92fc6b" opacity="1.00" d=" M 250.58 51.29 C 248.64 50.51 250.35 48.63 250.82 47.46 C 259.43 50.06 267.81 57.07 269.02 66.35 L 268.46 65.66 C 266.33 63.00 264.26 60.24 261.40 58.32 C 258.21 55.36 254.53 53.09 250.58 51.29 Z" />
<path fill="#92fc6b" opacity="1.00" d=" M 273.18 69.84 C 280.16 63.25 290.85 61.01 299.91 64.14 C 301.65 64.43 302.23 66.69 300.87 67.79 C 298.65 68.20 296.49 67.17 294.34 66.79 C 287.10 64.66 279.99 67.67 273.18 69.84 Z" />
</g>
<g id="#83ed88ff">
<path fill="#83ed88" opacity="1.00" d=" M 161.03 48.70 C 193.82 42.16 229.22 50.76 255.24 71.74 C 256.08 72.83 256.66 74.08 257.33 75.27 C 253.32 75.33 249.34 75.87 245.49 77.00 C 226.74 63.18 203.26 55.88 179.98 56.71 C 174.34 56.87 168.75 57.65 163.17 58.43 C 162.44 55.19 161.72 51.94 161.03 48.70 Z" />
<path fill="#83ed88" opacity="1.00" d=" M 283.79 129.34 C 285.81 124.81 287.66 120.19 289.53 115.59 C 292.26 121.81 294.44 128.26 296.12 134.84 C 292.84 135.57 289.55 136.29 286.27 137.03 C 285.46 134.46 284.63 131.90 283.79 129.34 Z" />
</g>
<g id="#6daf58ff">
<path fill="#6daf58" opacity="1.00" d=" M 272.39 53.16 C 273.90 53.40 273.51 56.05 272.19 56.34 C 270.61 56.09 271.04 53.46 272.39 53.16 Z" />
</g>
<g id="#5fce96ff">
<path fill="#5fce96" opacity="1.00" d=" M 163.17 58.43 C 168.75 57.65 174.34 56.87 179.98 56.71 C 203.26 55.88 226.74 63.18 245.49 77.00 C 243.70 77.90 241.91 78.80 240.12 79.70 C 218.23 64.70 190.39 58.74 164.29 63.71 C 163.91 61.95 163.55 60.19 163.17 58.43 Z" />
<path fill="#5fce96" opacity="1.00" d=" M 280.62 138.23 C 280.86 135.02 282.46 132.20 283.79 129.34 C 284.63 131.90 285.46 134.46 286.27 137.03 C 284.39 137.44 282.50 137.85 280.62 138.23 Z" />
</g>
<g id="#6bc93bff">
<path fill="#6bc93b" opacity="1.00" d=" M 261.40 58.32 C 264.26 60.24 266.33 63.00 268.46 65.66 C 267.71 66.61 266.96 67.55 266.22 68.50 C 264.89 64.98 263.10 61.67 261.40 58.32 Z" />
</g>
<g id="#70d63aff">
<path fill="#70d63a" opacity="1.00" d=" M 273.18 69.84 C 279.99 67.67 287.10 64.66 294.34 66.79 C 287.25 66.46 279.82 68.61 274.88 73.91 C 272.18 76.45 270.94 80.02 269.07 83.12 C 267.90 84.56 266.22 83.05 265.13 82.35 C 266.96 77.77 269.13 72.86 273.18 69.84 Z" />
</g>
<g id="#d60024ff">
<path fill="#d60024" opacity="1.00" d=" M 165.66 69.79 C 189.10 65.09 214.45 69.96 234.35 83.24 C 233.00 84.63 231.81 86.16 230.63 87.69 C 219.85 81.41 208.21 76.42 195.85 74.31 C 186.17 72.46 176.25 72.46 166.46 73.35 C 166.19 72.16 165.93 70.97 165.66 69.79 Z" />
</g>
<g id="#f42535ff">
<path fill="#f42535" opacity="1.00" d=" M 166.46 73.35 C 176.25 72.46 186.17 72.46 195.85 74.31 C 208.21 76.42 219.85 81.41 230.63 87.69 C 231.81 86.16 233.00 84.63 234.35 83.24 L 235.58 82.88 C 234.64 84.80 233.60 86.73 232.02 88.21 C 230.12 89.94 228.32 91.81 227.00 94.03 C 223.16 100.32 219.17 106.51 215.09 112.65 C 206.32 94.17 187.99 80.52 167.59 78.13 C 167.21 76.54 166.83 74.94 166.46 73.35 Z" />
</g>
<g id="#ffe108ff">
<path fill="#ffe108" opacity="1.00" d=" M 245.43 83.41 C 249.77 81.68 254.45 81.13 259.09 81.46 C 259.57 83.64 260.40 85.72 261.49 87.68 C 256.23 85.95 250.78 84.83 245.43 83.41 Z" />
<path fill="#ffe108" opacity="1.00" d=" M 268.27 90.16 C 270.51 89.36 272.58 88.18 274.39 86.62 C 278.18 89.14 281.61 92.27 283.89 96.26 C 278.62 94.38 273.65 91.72 268.27 90.16 Z" />
</g>
<g id="#a07f3cff">
<path fill="#a07f3c" opacity="1.00" d=" M 120.90 99.95 C 131.03 89.46 145.47 83.49 160.02 83.42 C 160.00 87.68 159.99 91.95 160.01 96.21 C 148.39 96.43 136.87 101.30 129.09 110.01 C 121.84 117.71 118.16 128.21 117.91 138.69 C 113.66 138.57 109.41 138.47 105.16 138.37 C 105.24 124.17 110.86 110.05 120.90 99.95 Z" />
</g>
<g id="#84692cff">
<path fill="#84692c" opacity="1.00" d=" M 160.02 83.42 C 173.61 83.51 187.04 88.74 197.03 97.95 C 206.75 106.63 213.05 118.98 214.42 131.93 C 214.36 134.01 214.21 136.09 214.07 138.17 C 210.07 138.39 206.07 138.43 202.07 138.29 C 201.82 126.75 197.06 115.30 188.44 107.52 C 180.83 100.30 170.44 96.46 160.01 96.21 C 159.99 91.95 160.00 87.68 160.02 83.42 Z" />
<path fill="#84692c" opacity="1.00" d=" M 105.16 138.37 C 109.41 138.47 113.66 138.57 117.91 138.69 C 118.25 154.58 127.95 169.59 142.32 176.37 C 139.48 179.69 136.80 183.14 134.23 186.67 C 116.76 177.31 105.12 158.25 105.16 138.37 Z" />
</g>
<g id="#ffb206ff">
<path fill="#ffb206" opacity="1.00" d=" M 235.85 95.05 C 237.56 90.15 240.93 86.00 245.43 83.41 C 250.78 84.83 256.23 85.95 261.49 87.68 C 263.62 88.85 265.89 89.67 268.27 90.16 C 273.65 91.72 278.62 94.38 283.89 96.26 L 284.10 96.33 C 285.69 100.29 286.22 104.57 285.56 108.80 C 281.36 107.55 277.27 105.90 273.04 104.76 C 271.38 103.99 270.17 105.70 268.98 106.49 C 267.97 106.07 266.97 105.65 265.98 105.23 C 265.25 103.31 264.75 100.88 262.36 100.48 C 260.18 99.23 258.26 100.99 256.64 102.27 C 256.03 101.94 255.42 101.61 254.81 101.28 C 253.89 99.87 253.71 97.51 251.71 97.20 C 249.89 96.64 248.31 98.06 246.72 98.70 L 245.90 99.09 C 245.34 97.50 245.60 95.09 243.69 94.37 C 241.63 93.32 239.75 94.90 238.06 95.87 C 237.32 95.59 236.59 95.32 235.85 95.05 Z" />
</g>
<g id="#fc4259ff">
<path fill="#fc4259" opacity="1.00" d=" M 227.00 94.03 C 228.32 91.81 230.12 89.94 232.02 88.21 C 226.73 102.47 223.93 117.50 220.55 132.29 C 219.74 125.50 217.90 118.88 215.09 112.65 C 219.17 106.51 223.16 100.32 227.00 94.03 Z" />
</g>
<g id="#ff8103ff">
<path fill="#ff8103" opacity="1.00" d=" M 235.85 95.05 C 236.59 95.32 237.32 95.59 238.06 95.87 C 238.54 97.02 239.09 98.14 239.70 99.23 C 241.48 100.92 243.99 99.97 245.90 99.09 L 246.72 98.70 C 247.50 100.34 247.82 102.90 250.09 103.12 C 251.96 103.82 253.36 102.13 254.81 101.28 C 255.42 101.61 256.03 101.94 256.64 102.27 C 257.81 106.23 262.78 108.31 265.98 105.23 C 266.97 105.65 267.97 106.07 268.98 106.49 C 269.48 107.75 269.43 109.62 270.97 110.13 C 275.04 111.84 279.33 112.96 283.50 114.41 C 282.26 117.81 280.93 121.17 279.47 124.47 C 275.29 123.20 271.24 121.48 266.97 120.50 C 264.10 119.85 262.50 124.68 265.27 125.83 C 269.04 127.57 273.13 128.51 277.03 129.95 C 275.96 132.39 274.89 134.81 273.81 137.24 C 258.72 132.64 243.96 127.01 228.97 122.10 C 231.06 113.03 233.28 103.99 235.85 95.05 M 235.12 110.24 C 232.11 111.20 232.96 115.96 236.03 116.15 C 238.11 117.05 240.62 115.36 240.18 113.02 C 240.02 110.60 237.15 109.64 235.12 110.24 M 243.25 113.30 C 241.69 114.10 241.41 116.33 242.40 117.69 C 244.01 119.73 248.33 119.79 248.77 116.71 C 249.47 113.71 245.57 111.95 243.25 113.30 M 253.38 116.50 C 248.11 120.10 258.08 126.11 259.95 120.91 C 260.89 117.42 256.08 115.33 253.38 116.50 Z" />
</g>
<g id="#def21dff">
<path fill="#def21d" opacity="1.00" d=" M 124.31 134.44 C 125.85 117.96 140.08 104.07 156.53 102.65 C 149.92 109.97 142.65 116.66 135.78 123.73 C 132.11 127.46 128.54 131.33 124.31 134.44 Z" />
</g>
<g id="#bedd05ff">
<path fill="#bedd05" opacity="1.00" d=" M 156.53 102.65 C 157.68 102.61 158.84 102.56 160.00 102.52 C 159.95 109.79 160.14 117.06 159.88 124.32 C 156.37 125.25 152.49 126.06 150.00 128.95 C 147.46 131.36 146.69 134.87 146.07 138.18 C 147.76 138.35 149.46 138.53 151.16 138.70 C 152.18 140.67 152.91 142.89 154.52 144.47 C 156.15 145.70 158.09 146.43 159.93 147.31 C 159.96 149.05 159.99 150.78 160.02 152.52 C 156.65 151.82 153.03 151.11 150.55 148.52 C 147.66 146.00 146.80 142.13 145.77 138.62 C 138.55 138.31 131.32 138.44 124.10 138.58 C 124.13 137.23 124.16 135.88 124.19 134.54 L 124.31 134.44 C 128.54 131.33 132.11 127.46 135.78 123.73 C 142.65 116.66 149.92 109.97 156.53 102.65 Z" />
<path fill="#bedd05" opacity="1.00" d=" M 160.19 138.40 C 162.82 138.41 165.46 138.40 168.10 138.40 C 168.43 143.11 164.39 146.12 160.23 147.05 C 159.95 144.17 159.95 141.28 160.19 138.40 Z" />
<path fill="#bedd05" opacity="1.00" d=" M 124.30 142.43 C 133.95 150.39 142.07 160.03 151.23 168.54 C 149.80 169.70 148.36 170.85 146.93 172.01 C 134.74 167.19 125.61 155.52 124.30 142.43 Z" />
</g>
<g id="#85c606ff">
<path fill="#85c606" opacity="1.00" d=" M 160.00 102.52 C 161.13 102.57 162.25 102.62 163.38 102.68 C 168.68 108.68 174.58 114.11 180.16 119.85 C 185.31 124.85 190.10 130.24 195.68 134.79 C 195.77 136.05 195.85 137.32 195.95 138.58 C 188.78 138.49 181.61 138.26 174.45 138.69 C 173.40 141.99 172.62 145.61 170.13 148.18 C 167.51 151.04 163.58 151.88 160.04 153.02 C 159.99 156.29 159.97 159.56 159.96 162.84 C 156.98 164.63 154.05 166.51 151.23 168.54 C 142.07 160.03 133.95 150.39 124.30 142.43 L 124.17 142.33 C 124.15 141.08 124.13 139.83 124.10 138.58 C 131.32 138.44 138.55 138.31 145.77 138.62 C 146.80 142.13 147.66 146.00 150.55 148.52 C 153.03 151.11 156.65 151.82 160.02 152.52 C 159.99 150.78 159.96 149.05 159.93 147.31 C 158.09 146.43 156.15 145.70 154.52 144.47 C 152.91 142.89 152.18 140.67 151.16 138.70 C 149.46 138.53 147.76 138.35 146.07 138.18 C 146.69 134.87 147.46 131.36 150.00 128.95 C 152.49 126.06 156.37 125.25 159.88 124.32 C 160.14 117.06 159.95 109.79 160.00 102.52 M 160.03 124.88 C 160.02 126.46 160.03 128.04 160.04 129.63 C 161.95 130.40 164.07 130.89 165.69 132.25 C 167.30 133.96 168.04 136.26 169.03 138.34 C 170.58 138.36 172.14 138.38 173.70 138.40 C 173.92 131.13 167.41 124.31 160.03 124.88 M 151.69 138.19 C 154.47 138.27 157.25 138.25 160.03 138.17 C 160.04 135.37 159.97 132.58 159.80 129.80 C 155.45 130.34 151.91 133.70 151.69 138.19 M 160.19 138.40 C 159.95 141.28 159.95 144.17 160.23 147.05 C 164.39 146.12 168.43 143.11 168.10 138.40 C 165.46 138.40 162.82 138.41 160.19 138.40 Z" />
</g>
<g id="#52c408ff">
<path fill="#52c408" opacity="1.00" d=" M 163.38 102.68 C 179.96 104.06 194.19 118.23 195.68 134.79 C 190.10 130.24 185.31 124.85 180.16 119.85 C 174.58 114.11 168.68 108.68 163.38 102.68 Z" />
<path fill="#52c408" opacity="1.00" d=" M 160.03 124.88 C 167.41 124.31 173.92 131.13 173.70 138.40 C 172.14 138.38 170.58 138.36 169.03 138.34 C 168.04 136.26 167.30 133.96 165.69 132.25 C 164.07 130.89 161.95 130.40 160.04 129.63 C 160.03 128.04 160.02 126.46 160.03 124.88 Z" />
<path fill="#52c408" opacity="1.00" d=" M 151.69 138.19 C 151.91 133.70 155.45 130.34 159.80 129.80 C 159.97 132.58 160.04 135.37 160.03 138.17 C 157.25 138.25 154.47 138.27 151.69 138.19 Z" />
<path fill="#52c408" opacity="1.00" d=" M 174.45 138.69 C 181.61 138.26 188.78 138.49 195.95 138.58 C 195.87 139.77 195.80 140.97 195.73 142.16 C 191.19 145.61 187.43 149.89 183.50 153.98 C 175.38 156.11 167.33 158.72 159.96 162.84 C 159.97 159.56 159.99 156.29 160.04 153.02 C 163.58 151.88 167.51 151.04 170.13 148.18 C 172.62 145.61 173.40 141.99 174.45 138.69 Z" />
</g>
<g id="#ff6b06ff">
<path fill="#ff6b06" opacity="1.00" d=" M 228.97 122.10 C 243.96 127.01 258.72 132.64 273.81 137.24 C 273.41 138.13 273.01 139.01 272.62 139.90 C 268.42 138.70 264.42 136.81 260.11 136.06 C 257.77 136.45 256.63 139.81 258.65 141.30 C 262.25 143.10 266.23 143.95 270.00 145.33 C 268.47 148.66 266.91 151.98 265.25 155.24 C 261.20 153.97 257.28 152.22 253.12 151.39 C 250.46 151.10 249.04 155.20 251.33 156.61 C 254.96 158.39 258.95 159.25 262.73 160.66 C 261.07 163.99 259.40 167.31 257.79 170.66 C 254.75 169.76 251.65 168.81 249.08 166.88 C 240.96 161.14 231.66 157.25 222.06 154.75 C 222.52 152.41 222.97 150.06 223.47 147.73 C 224.45 146.86 226.34 146.56 226.43 145.00 C 226.98 143.46 225.42 142.27 224.92 140.95 C 225.57 137.41 226.40 133.92 227.06 130.38 C 228.57 131.24 230.16 132.26 231.99 131.97 C 234.34 131.23 234.64 127.74 232.69 126.39 C 231.25 125.68 229.57 125.92 228.02 125.73 C 228.33 124.52 228.65 123.31 228.97 122.10 M 237.24 129.06 C 235.83 129.78 235.17 131.50 235.85 132.96 C 237.09 135.42 241.51 135.90 242.49 132.93 C 243.44 129.94 239.71 127.81 237.24 129.06 M 247.23 132.09 C 242.17 135.39 250.65 141.31 253.40 137.28 C 255.42 133.72 250.18 130.85 247.23 132.09 M 230.08 144.19 C 228.70 144.76 227.70 146.47 228.37 147.92 C 229.27 150.80 234.39 151.23 235.09 147.97 C 235.84 145.16 232.46 143.30 230.08 144.19 M 239.38 147.50 C 234.45 151.29 244.33 156.85 246.26 151.93 C 247.39 148.27 242.10 146.14 239.38 147.50 Z" />
</g>
<g id="#705622ff">
<path fill="#705622" opacity="1.00" d=" M 214.42 131.93 C 215.47 138.95 214.45 146.09 212.85 152.95 C 208.47 152.64 204.08 152.42 199.69 152.24 C 200.90 147.67 201.77 143.01 202.07 138.29 C 206.07 138.43 210.07 138.39 214.07 138.17 C 214.21 136.09 214.36 134.01 214.42 131.93 Z" />
</g>
<g id="#c8dbdbff">
<path fill="#c8dbdb" opacity="1.00" d=" M 276.83 144.90 C 282.91 143.74 288.90 142.10 294.99 140.89 C 302.31 160.00 303.61 181.46 298.22 201.23 C 291.97 225.64 275.97 247.32 254.64 260.69 C 238.80 270.73 220.09 276.16 201.34 276.19 C 201.37 269.69 201.42 263.19 201.30 256.69 C 195.78 256.63 190.25 256.60 184.75 256.18 C 200.21 256.11 215.68 256.66 231.12 255.52 C 241.85 254.59 252.94 252.91 262.34 247.32 C 269.72 242.99 275.07 235.36 276.49 226.91 C 278.91 214.94 276.33 202.55 271.32 191.59 C 273.16 180.52 273.49 169.04 270.52 158.11 C 272.61 153.70 274.60 149.24 276.83 144.90 Z" />
<path fill="#c8dbdb" opacity="1.00" d=" M 261.96 176.00 C 263.01 173.07 264.33 170.20 266.24 167.72 C 266.66 171.54 266.99 175.40 266.59 179.24 C 266.53 178.16 266.46 177.08 266.38 176.00 C 264.90 175.96 263.43 175.96 261.96 176.00 Z" />
</g>
<g id="#25c10aff">
<path fill="#25c10a" opacity="1.00" d=" M 183.50 153.98 C 187.43 149.89 191.19 145.61 195.73 142.16 C 195.29 145.78 194.39 149.32 193.05 152.71 C 189.86 153.13 186.69 153.61 183.50 153.98 Z" />
</g>
<g id="#80c3ffff">
<path fill="#80c3ff" opacity="1.00" d=" M 66.46 166.93 C 66.00 162.28 69.87 158.63 74.26 158.04 C 74.29 189.36 74.30 220.69 74.26 252.01 C 70.17 253.95 70.18 260.04 74.24 262.01 C 74.09 264.92 75.06 268.16 73.59 270.82 C 73.26 270.99 72.61 271.32 72.28 271.48 C 68.73 270.85 66.12 266.74 66.45 263.07 C 66.45 231.02 66.44 198.97 66.46 166.93 Z" />
</g>
<g id="#2a8bf4ff">
<path fill="#2a8bf4" opacity="1.00" d=" M 74.26 158.04 C 78.20 158.70 82.17 161.56 82.04 165.94 C 82.19 198.30 82.07 230.67 82.10 263.04 C 82.70 268.15 77.30 273.23 72.28 271.48 C 72.61 271.32 73.26 270.99 73.59 270.82 C 75.06 268.16 74.09 264.92 74.24 262.01 C 78.42 260.05 78.33 254.03 74.26 252.01 C 74.30 220.69 74.29 189.36 74.26 158.04 Z" />
</g>
<g id="#ffffffff">
<path fill="#ffffff" opacity="1.00" d=" M 102.76 159.00 C 107.82 173.06 118.24 184.94 131.31 192.11 C 125.67 203.82 123.56 217.52 127.00 230.18 C 129.34 238.62 135.82 245.53 143.70 249.16 C 156.49 255.14 170.90 255.62 184.75 256.18 C 190.25 256.60 195.78 256.63 201.30 256.69 C 201.42 263.19 201.37 269.69 201.34 276.19 C 176.92 276.18 152.66 266.79 134.62 250.34 C 115.71 233.46 103.66 209.14 101.71 183.87 C 101.02 175.57 101.55 167.22 102.76 159.00 Z" />
<path fill="#ffffff" opacity="1.00" d=" M 163.02 168.01 C 190.99 152.58 228.78 155.66 252.70 177.30 C 260.34 184.17 266.14 193.03 269.26 202.83 C 258.91 201.07 249.48 206.56 239.87 209.37 C 240.45 199.57 235.93 189.85 228.47 183.57 C 213.81 170.79 189.94 170.54 175.03 183.06 C 167.26 189.36 162.47 199.27 163.03 209.34 C 153.32 206.65 143.91 201.20 133.49 202.75 C 138.15 187.78 149.39 175.46 163.02 168.01 Z" />
<path fill="#ffffff" opacity="1.00" d=" M 260.81 176.93 C 261.10 176.70 261.67 176.23 261.96 176.00 C 263.43 175.96 264.90 175.96 266.38 176.00 C 266.46 177.08 266.53 178.16 266.59 179.24 C 266.61 180.77 266.51 182.30 266.45 183.83 C 264.67 181.45 262.78 179.16 260.81 176.93 Z" />
</g>
<g id="#ffef5aff">
<path fill="#ffef5a" opacity="1.00" d=" M 172.65 194.78 C 177.11 186.49 185.75 181.02 194.86 179.32 C 196.96 178.84 199.06 179.36 201.12 179.76 C 201.41 181.95 202.45 185.37 199.63 186.35 C 194.57 187.71 189.15 188.61 184.99 192.07 C 181.76 194.15 180.48 197.88 179.16 201.28 C 178.05 201.71 176.95 202.14 175.85 202.58 C 172.87 200.99 171.68 198.03 172.65 194.78 Z" />
<path fill="#ffef5a" opacity="1.00" d=" M 171.99 206.09 C 172.57 202.91 176.00 202.50 178.65 202.43 L 179.67 202.67 C 180.66 205.03 181.64 208.27 178.87 209.87 C 176.18 212.73 170.70 210.03 171.99 206.09 Z" />
</g>
<g id="#ffbc00ff">
<path fill="#ffbc00" opacity="1.00" d=" M 201.12 179.76 C 214.25 179.61 227.86 187.02 232.59 199.69 C 222.55 201.47 213.47 207.03 203.14 207.44 C 195.00 208.01 187.37 204.72 179.67 202.67 L 178.65 202.43 C 178.77 202.14 179.03 201.57 179.16 201.28 C 180.48 197.88 181.76 194.15 184.99 192.07 C 189.15 188.61 194.57 187.71 199.63 186.35 C 202.45 185.37 201.41 181.95 201.12 179.76 Z" />
</g>
<g id="#ff9100ff">
<path fill="#ff9100" opacity="1.00" d=" M 174.34 220.61 C 167.37 213.94 167.86 202.55 172.65 194.78 C 171.68 198.03 172.87 200.99 175.85 202.58 C 176.95 202.14 178.05 201.71 179.16 201.28 C 179.03 201.57 178.77 202.14 178.65 202.43 C 176.00 202.50 172.57 202.91 171.99 206.09 C 170.70 210.03 176.18 212.73 178.87 209.87 C 181.64 208.27 180.66 205.03 179.67 202.67 C 187.37 204.72 195.00 208.01 203.14 207.44 C 213.47 207.03 222.55 201.47 232.59 199.69 C 234.73 206.51 234.36 214.75 229.08 220.07 C 222.04 227.10 211.46 228.63 201.95 228.98 C 192.33 228.81 181.69 227.40 174.34 220.61 M 175.04 212.00 C 173.62 213.08 174.07 215.79 176.03 215.77 C 178.19 216.27 179.18 213.54 178.01 211.97 C 177.26 211.98 175.78 211.99 175.04 212.00 Z" />
</g>
<g id="#f4f3e9ff">
<path fill="#f4f3e9" opacity="1.00" d=" M 133.49 202.75 C 143.91 201.20 153.32 206.65 163.03 209.34 C 163.37 214.17 165.25 218.72 167.87 222.75 C 168.39 224.74 168.83 226.74 169.35 228.74 C 159.23 227.06 150.19 221.40 139.96 220.17 C 137.02 219.80 134.19 220.85 131.44 221.71 C 131.08 215.32 131.72 208.90 133.49 202.75 Z" />
<path fill="#f4f3e9" opacity="1.00" d=" M 239.87 209.37 C 249.48 206.56 258.91 201.07 269.26 202.83 C 270.99 208.98 271.64 215.38 271.28 221.76 C 268.34 220.77 265.26 219.74 262.12 220.33 C 252.38 221.99 243.42 226.44 233.95 229.09 C 233.95 228.53 233.94 227.43 233.94 226.87 C 234.22 225.46 234.52 224.05 234.89 222.65 C 237.54 218.67 239.48 214.18 239.87 209.37 Z" />
</g>
<g id="#ffe44fff">
<path fill="#ffe44f" opacity="1.00" d=" M 175.04 212.00 C 175.78 211.99 177.26 211.98 178.01 211.97 C 179.18 213.54 178.19 216.27 176.03 215.77 C 174.07 215.79 173.62 213.08 175.04 212.00 Z" />
</g>
<g id="#e0deceff">
<path fill="#e0dece" opacity="1.00" d=" M 131.44 221.71 C 134.19 220.85 137.02 219.80 139.96 220.17 C 150.19 221.40 159.23 227.06 169.35 228.74 C 171.82 234.19 176.00 239.04 181.66 241.30 C 189.98 244.69 199.20 244.27 208.00 243.94 C 215.10 243.57 222.76 242.16 227.88 236.80 C 230.71 234.07 232.47 230.47 233.94 226.87 C 233.94 227.43 233.95 228.53 233.95 229.09 C 243.42 226.44 252.38 221.99 262.12 220.33 C 265.26 219.74 268.34 220.77 271.28 221.76 C 270.49 228.46 267.96 235.27 262.57 239.61 C 254.60 246.17 243.99 247.92 234.04 249.09 C 218.42 250.47 202.72 250.34 187.06 250.12 C 174.97 249.63 162.61 249.41 151.03 245.52 C 144.74 243.39 138.64 239.68 135.23 233.82 C 132.99 230.16 132.07 225.90 131.44 221.71 Z" />
</g>
<g id="#d3d1c1ff">
<path fill="#d3d1c1" opacity="1.00" d=" M 167.87 222.75 C 176.06 232.12 189.06 235.03 201.02 235.00 C 213.21 235.12 226.54 232.24 234.89 222.65 C 234.52 224.05 234.22 225.46 233.94 226.87 C 232.47 230.47 230.71 234.07 227.88 236.80 C 222.76 242.16 215.10 243.57 208.00 243.94 C 199.20 244.27 189.98 244.69 181.66 241.30 C 176.00 239.04 171.82 234.19 169.35 228.74 C 168.83 226.74 168.39 224.74 167.87 222.75 Z" />
</g>
</svg>
